<?xml version="1.0" encoding="UTF-8"?>
<svg version="1.1" xmlns="http://www.w3.org/2000/svg" width="320" height="75">
<path d="M0 0 C105.6 0 211.2 0 320 0 C320 24.75 320 49.5 320 75 C214.4 75 108.8 75 0 75 C0 50.25 0 25.5 0 0 Z " fill="#FCFDFD" transform="translate(0,0)"/>
<path d="M0 0 C1.875 1.0625 1.875 1.0625 3 3 C3.6548151 9.11160757 3.6548151 9.11160757 1.71875 11.73828125 C0 13 0 13 -3.875 12.6875 C-8.68307594 12.48881918 -12.05874186 14.30605526 -16.0625 16.75 C-16.64692871 17.09764404 -17.23135742 17.44528809 -17.83349609 17.8034668 C-19.68874099 18.94827983 -19.68874099 18.94827983 -22 21 C-22 22.32 -22 23.64 -22 25 C-19.92642695 26.22856207 -17.84403246 27.43225346 -15.75 28.625 C-15.16347656 28.975625 -14.57695312 29.32625 -13.97265625 29.6875 C-12.03302259 30.82286937 -12.03302259 30.82286937 -9 32 C-6.73351984 31.30204419 -5.64769911 30.64769911 -4 29 C-2.37747508 28.90113647 -0.75052727 28.87028833 0.875 28.875 C1.75929687 28.87242188 2.64359375 28.86984375 3.5546875 28.8671875 C6 29 6 29 9 30 C9 20.76 9 11.52 9 2 C13 1 13 1 16.51171875 2.73828125 C17.91112397 3.58410344 19.30262812 4.44308639 20.6875 5.3125 C22.20029373 6.23344607 23.71332194 7.15400706 25.2265625 8.07421875 C26.00676758 8.5542334 26.78697266 9.03424805 27.59082031 9.52880859 C31.55045197 11.94680012 35.55804129 14.28228732 39.5625 16.625 C41.00153036 17.47096598 42.44035383 18.31728404 43.87890625 19.1640625 C44.90886719 19.76992188 45.93882813 20.37578125 47 21 C46.65228825 23.71062881 46.32675302 24.74251398 44.14233398 26.46386719 C42.95619507 27.12370605 42.95619507 27.12370605 41.74609375 27.796875 C40.89208984 28.28027344 40.03808594 28.76367188 39.15820312 29.26171875 C38.26037109 29.75285156 37.36253906 30.24398437 36.4375 30.75 C35.08495117 31.50990234 35.08495117 31.50990234 33.70507812 32.28515625 C31.47626239 33.53517989 29.24141119 34.77274901 27 36 C27.16113281 36.87140625 27.32226562 37.7428125 27.48828125 38.640625 C27.95881609 41.72963237 28.16595123 44.62973849 28.1875 47.75 C28.20167969 48.69359375 28.21585937 49.6371875 28.23046875 50.609375 C28 53 28 53 26 55 C21.1258827 54.8682671 19.25940063 52.342975 16 49 C14.18343185 48.06608997 14.18343185 48.06608997 12 48 C10.783125 47.835 9.56625 47.67 8.3125 47.5 C3.34136064 47.49072549 0.66124529 50.29758897 -2.82421875 53.56640625 C-5 55 -5 55 -7.70703125 54.83984375 C-10 54 -10 54 -11 52 C-11.09639211 50.39818997 -11.1298117 48.79220049 -11.125 47.1875 C-11.12757812 46.33542969 -11.13015625 45.48335937 -11.1328125 44.60546875 C-10.99902143 41.98080278 -10.57911516 39.56005669 -10 37 C-18.84434116 30.58717917 -18.84434116 30.58717917 -29.125 29.3125 C-30.40375 29.539375 -31.6825 29.76625 -33 30 C-35.625 27.9375 -35.625 27.9375 -37 25 C-36.85384044 21.27293127 -36.65788293 19.65788293 -34 17 C-32.07421875 17.0859375 -32.07421875 17.0859375 -29.6875 17.375 C-22.48847052 17.53264298 -16.22452884 13.73093237 -11 9 C-9.78594656 5.4236819 -9.78594656 5.4236819 -9 2 C-5.53076119 -0.31282587 -4.07794425 -0.42478586 0 0 Z " fill="#F3DB5C" transform="translate(45,11)"/>
<path d="M0 0 C3.6010815 0.52733786 6.43756847 2.2154127 9.578125 3.984375 C10.65707031 4.59023438 11.73601562 5.19609375 12.84765625 5.8203125 C13.97042969 6.45710938 15.09320313 7.09390625 16.25 7.75 C17.35730469 8.37132812 18.46460938 8.99265625 19.60546875 9.6328125 C25.49697885 12.95335446 31.30127416 16.35837519 37 20 C36.65228825 22.71062881 36.32675302 23.74251398 34.14233398 25.46386719 C33.35157471 25.90375977 32.56081543 26.34365234 31.74609375 26.796875 C30.89208984 27.28027344 30.03808594 27.76367188 29.15820312 28.26171875 C28.26037109 28.75285156 27.36253906 29.24398437 26.4375 29.75 C25.53580078 30.25660156 24.63410156 30.76320313 23.70507812 31.28515625 C21.47626239 32.53517989 19.24141119 33.77274901 17 35 C15.62437146 33.71034824 14.29233607 32.37310707 13 31 C13 30.34 13 29.68 13 29 C8.38 29 3.76 29 -1 29 C-1.02291487 25.0306345 -1.04284015 21.0614368 -1.05493164 17.09204102 C-1.05997057 15.74079614 -1.06680177 14.38955674 -1.07543945 13.03833008 C-1.08752419 11.09979566 -1.09269828 9.161222 -1.09765625 7.22265625 C-1.10289307 6.05484619 -1.10812988 4.88703613 -1.11352539 3.68383789 C-1 1 -1 1 0 0 Z " fill="#06BF65" transform="translate(55,12)"/>
<path d="M0 0 C5.28 0 10.56 0 16 0 C16 9.57 16 19.14 16 29 C15.01 29 14.02 29 13 29 C13 30.32 13 31.64 13 33 C8.71 33 4.42 33 0 33 C0 32.01 0 31.02 0 30 C3.3 30 6.6 30 10 30 C10 27.69 10 25.38 10 23 C6.37 23 2.74 23 -1 23 C-1 22.01 -1 21.02 -1 20 C-1.99 20 -2.98 20 -4 20 C-4 14.39 -4 8.78 -4 3 C-2.68 3 -1.36 3 0 3 C0 2.01 0 1.02 0 0 Z " fill="#074FAF" transform="translate(162,30)"/>
<path d="M0 0 C5.28 0 10.56 0 16 0 C16 0.99 16 1.98 16 3 C17.32 3 18.64 3 20 3 C20 7.62 20 12.24 20 17 C18.68 17 17.36 17 16 17 C16 17.99 16 18.98 16 20 C12.7 20 9.4 20 6 20 C6 23.3 6 26.6 6 30 C4.02 30 2.04 30 0 30 C0 20.1 0 10.2 0 0 Z " fill="#0950AF" transform="translate(182,23)"/>
<path d="M0 0 C5.28 0 10.56 0 16 0 C16 0.99 16 1.98 16 3 C17.32 3 18.64 3 20 3 C20 7.62 20 12.24 20 17 C18.68 17 17.36 17 16 17 C16 17.99 16 18.98 16 20 C12.7 20 9.4 20 6 20 C6 23.3 6 26.6 6 30 C4.02 30 2.04 30 0 30 C0 20.1 0 10.2 0 0 Z " fill="#0950AF" transform="translate(102,23)"/>
<path d="M0 0 C1.875 1.0625 1.875 1.0625 3 3 C3.6548151 9.11160757 3.6548151 9.11160757 1.71875 11.73828125 C0 13 0 13 -3.875 12.6875 C-8.68307594 12.48881918 -12.05874186 14.30605526 -16.0625 16.75 C-16.64692871 17.09764404 -17.23135742 17.44528809 -17.83349609 17.8034668 C-19.68874099 18.94827983 -19.68874099 18.94827983 -22 21 C-22 22.32 -22 23.64 -22 25 C-15.07 28.96 -15.07 28.96 -8 33 C-8.33 34.32 -8.66 35.64 -9 37 C-9.96421875 36.4946875 -10.9284375 35.989375 -11.921875 35.46875 C-13.19769857 34.8120761 -14.47375242 34.15584945 -15.75 33.5 C-16.38421875 33.16613281 -17.0184375 32.83226562 -17.671875 32.48828125 C-22.11944751 30.21816611 -25.02727648 29.79450797 -30 30.3125 C-33 30 -33 30 -35.4375 27.875 C-37 25 -37 25 -36.875 21.8125 C-36 19 -36 19 -34 17 C-32.07421875 17.0859375 -32.07421875 17.0859375 -29.6875 17.375 C-22.48847052 17.53264298 -16.22452884 13.73093237 -11 9 C-9.78594656 5.4236819 -9.78594656 5.4236819 -9 2 C-5.53076119 -0.31282587 -4.07794425 -0.42478586 0 0 Z " fill="#0B52B0" transform="translate(45,11)"/>
<path d="M0 0 C4.29 0 8.58 0 13 0 C13 0.99 13 1.98 13 3 C14.32 3 15.64 3 17 3 C17 8.61 17 14.22 17 20 C16.01 20 15.02 20 14 20 C14 20.99 14 21.98 14 23 C9.38 23 4.76 23 0 23 C0 22.01 0 21.02 0 20 C-0.99 20 -1.98 20 -3 20 C-3 14.39 -3 8.78 -3 3 C-2.01 3 -1.02 3 0 3 C0 2.01 0 1.02 0 0 Z " fill="#10C36D" transform="translate(288,30)"/>
<path d="M0 0 C4.29 0 8.58 0 13 0 C13 1.32 13 2.64 13 4 C13.99 4 14.98 4 16 4 C16 4.66 16 5.32 16 6 C14.02 6 12.04 6 10 6 C10 5.01 10 4.02 10 3 C7.69 3 5.38 3 3 3 C3 10.92 3 18.84 3 27 C5.31 27 7.62 27 10 27 C10 23.37 10 19.74 10 16 C9.01 16 8.02 16 7 16 C7 15.34 7 14.68 7 14 C9.97 14 12.94 14 16 14 C16 19.28 16 24.56 16 30 C10.72 30 5.44 30 0 30 C0 29.01 0 28.02 0 27 C-1.32 27 -2.64 27 -4 27 C-4 19.08 -4 11.16 -4 3 C-2.68 3 -1.36 3 0 3 C0 2.01 0 1.02 0 0 Z " fill="#09C169" transform="translate(265,23)"/>
<path d="M0 0 C2.31 0 4.62 0 7 0 C7 6.6 7 13.2 7 20 C8.98 20 10.96 20 13 20 C13 13.73 13 7.46 13 1 C15.31 1 17.62 1 20 1 C20 8.59 20 16.18 20 24 C14.39 24 8.78 24 3 24 C3 23.01 3 22.02 3 21 C2.01 21 1.02 21 0 21 C0 14.07 0 7.14 0 0 Z " fill="#1659B4" transform="translate(135,29)"/>
<path d="M0 0 C3.96 0 7.92 0 12 0 C12 0.99 12 1.98 12 3 C13.32 3 14.64 3 16 3 C16 9.6 16 16.2 16 23 C10.39 23 4.78 23 -1 23 C-1 22.01 -1 21.02 -1 20 C-1.99 20 -2.98 20 -4 20 C-4 17.69 -4 15.38 -4 13 C-3.01 13 -2.02 13 -1 13 C-1 11.68 -1 10.36 -1 9 C2.3 9 5.6 9 9 9 C9 7.02 9 5.04 9 3 C6.03 3 3.06 3 0 3 C0 2.01 0 1.02 0 0 Z " fill="#1458B3" transform="translate(219,30)"/>
<path d="M0 0 C2.31 0 4.62 0 7 0 C7 5.61 7 11.22 7 17 C9.31 17 11.62 17 14 17 C14 11.39 14 5.78 14 0 C15.98 0 17.96 0 20 0 C20 4.29 20 8.58 20 13 C19.01 13 18.02 13 17 13 C17 15.31 17 17.62 17 20 C16.01 20 15.02 20 14 20 C14 22.31 14 24.62 14 27 C13.01 27 12.02 27 11 27 C11 27.99 11 28.98 11 30 C9.68 30 8.36 30 7 30 C7 30.99 7 31.98 7 33 C5.02 33 3.04 33 1 33 C1 32.01 1 31.02 1 30 C1.99 30 2.98 30 4 30 C4 29.01 4 28.02 4 27 C4.99 27 5.98 27 7 27 C7 24.36 7 21.72 7 19 C6.01 19 5.02 19 4 19 C4 17.02 4 15.04 4 13 C2.68 13 1.36 13 0 13 C0 8.71 0 4.42 0 0 Z " fill="#0E54B1" transform="translate(238,30)"/>
<path d="M0 0 C3.3 0 6.6 0 10 0 C10 11.22 10 22.44 10 34 C7.69 34 5.38 34 3 34 C3 24.1 3 14.2 3 4 C2.01 4 1.02 4 0 4 C0 2.68 0 1.36 0 0 Z " fill="#1659B4" transform="translate(202,19)"/>
<path d="M0 0 C3.3 0 6.6 0 10 0 C10 11.22 10 22.44 10 34 C7.69 34 5.38 34 3 34 C3 24.1 3 14.2 3 4 C2.01 4 1.02 4 0 4 C0 2.68 0 1.36 0 0 Z " fill="#1659B4" transform="translate(122,19)"/>
<path d="M0 0 C1.98 0.99 3.96 1.98 6 3 C5.80859375 4.796875 5.80859375 4.796875 5 7 C2.78515625 8.703125 2.78515625 8.703125 0.0625 10.25 C-0.83339844 10.77078125 -1.72929688 11.2915625 -2.65234375 11.828125 C-5 13 -5 13 -7 13 C-8.625 11 -8.625 11 -10 9 C-9.67 8.34 -9.34 7.68 -9 7 C-11.97 7 -14.94 7 -18 7 C-18.33 6.01 -18.66 5.02 -19 4 C-18.67 3.34 -18.34 2.68 -18 2 C-17.01 2 -16.02 2 -15 2 C-15 2.66 -15 3.32 -15 4 C-7.72265339 4.72219068 -7.72265339 4.72219068 -1.3125 2 C-0.879375 1.34 -0.44625 0.68 0 0 Z " fill="#0EC16B" transform="translate(86,29)"/>
<path d="M0 0 C2.31 0 4.62 0 7 0 C7 5.61 7 11.22 7 17 C4.69 17 2.38 17 0 17 C0 11.39 0 5.78 0 0 Z " fill="#EAF0F8" transform="translate(165,33)"/>
<path d="M0 0 C2.31 0 4.62 0 7 0 C7 4.62 7 9.24 7 14 C4.69 14 2.38 14 0 14 C0 9.38 0 4.76 0 0 Z " fill="#E3EBF6" transform="translate(188,26)"/>
<path d="M0 0 C2.31 0 4.62 0 7 0 C7 4.62 7 9.24 7 14 C4.69 14 2.38 14 0 14 C0 9.38 0 4.76 0 0 Z " fill="#E3EBF6" transform="translate(108,26)"/>
<path d="M0 0 C1.98 0 3.96 0 6 0 C6 5.28 6 10.56 6 16 C4.02 16 2.04 16 0 16 C0 10.72 0 5.44 0 0 Z " fill="#FBFEFD" transform="translate(292,33)"/>
<path d="M0 0 C0.99 0.33 1.98 0.66 3 1 C3 1.66 3 2.32 3 3 C3.66 3 4.32 3 5 3 C5 3.99 5 4.98 5 6 C4.01 6 3.02 6 2 6 C2 6.99 2 7.98 2 9 C1.34 9 0.68 9 0 9 C0 8.01 0 7.02 0 6 C-0.99 6 -1.98 6 -3 6 C-3 5.01 -3 4.02 -3 3 C-2.01 3 -1.02 3 0 3 C0 2.01 0 1.02 0 0 Z " fill="#1F5CA2" transform="translate(43,46)"/>
<path d="M0 0 C1.98 0 3.96 0 6 0 C6 1.98 6 3.96 6 6 C4.02 6 2.04 6 0 6 C0 4.02 0 2.04 0 0 Z " fill="#FFFFFF" transform="translate(222,43)"/>
<path d="M0 0 C0.99 0 1.98 0 3 0 C3 0.66 3 1.32 3 2 C5.31 2 7.62 2 10 2 C10 2.66 10 3.32 10 4 C6.7 4.33 3.4 4.66 0 5 C-0.33 4.01 -0.66 3.02 -1 2 C-0.67 1.34 -0.34 0.68 0 0 Z " fill="#2CC67C" transform="translate(68,31)"/>
<path d="M0 0 C2.0625 0.4375 2.0625 0.4375 4 1 C3.34 2.65 2.68 4.3 2 6 C1.01 6 0.02 6 -1 6 C-1.042721 4.33388095 -1.04063832 2.66617115 -1 1 C-0.67 0.67 -0.34 0.34 0 0 Z " fill="#15C26F" transform="translate(55,12)"/>
</svg>
